<?xml version="1.0" encoding="utf-8"?>
<!-- Generator: Adobe Illustrator 23.0.5, SVG Export Plug-In . SVG Version: 6.00 Build 0)  -->
<svg version="1.1" xmlns="http://www.w3.org/2000/svg" xmlns:xlink="http://www.w3.org/1999/xlink" x="0px" y="0px"
	 viewBox="0 0 1080 1080" style="enable-background:new 0 0 1080 1080;" xml:space="preserve">
<style type="text/css">
	.st0{display:none;}
	.st1{display:inline;fill:#606060;}
	.st2{fill:none;stroke:#00A652;stroke-width:50;stroke-linecap:round;stroke-linejoin:round;stroke-miterlimit:10;}
	.st3{display:inline;}
	.st4{fill:none;stroke:#FFFFFF;stroke-width:50;stroke-linecap:round;stroke-linejoin:round;stroke-miterlimit:10;}
	.st5{fill:#00A652;}
	.st6{fill:#FFFFFF;}
	.st7{fill:#606060;}
</style>
<g id="BG" class="st0">
	<rect class="st1" width="1080" height="1080"/>
</g>
<g id="Profile_Green">
	<g>
		<circle class="st2" cx="540" cy="302.93" r="179.57"/>
		<path class="st2" d="M910.54,844.54C905.97,643.82,741.82,482.51,540,482.51S174.03,643.82,169.46,844.54"/>
	</g>
</g>
<g id="Profile_White" class="st0">
	<g class="st3">
		<circle class="st4" cx="540" cy="302.93" r="179.57"/>
		<path class="st4" d="M910.54,844.54C905.97,643.82,741.82,482.51,540,482.51S174.03,643.82,169.46,844.54"/>
	</g>
</g>
<g id="Camera_Green" class="st0">
	<g class="st3">
		<path class="st2" d="M742.08,876.84H337.92c-63.54,0-115.04-51.51-115.04-115.04V357.64c0-63.54,51.51-115.04,115.04-115.04
			h404.16c63.54,0,115.04,51.51,115.04,115.04V761.8C857.12,825.34,805.62,876.84,742.08,876.84z"/>
		<circle class="st2" cx="540" cy="559.72" r="158.71"/>
		<path class="st2" d="M621.44,161.23H470.05c-16.18,0-31.3,8.03-40.36,21.43l-40.54,59.94h313.19l-40.54-59.94
			C652.74,169.26,637.62,161.23,621.44,161.23z"/>
		<circle class="st5" cx="734.25" cy="359.12" r="24.99"/>
	</g>
</g>
<g id="Camera_White" class="st0">
	<g class="st3">
		<path class="st4" d="M742.08,876.84H337.92c-63.54,0-115.04-51.51-115.04-115.04V357.64c0-63.54,51.51-115.04,115.04-115.04
			h404.16c63.54,0,115.04,51.51,115.04,115.04V761.8C857.12,825.34,805.62,876.84,742.08,876.84z"/>
		<circle class="st4" cx="540" cy="559.72" r="158.71"/>
		<path class="st4" d="M621.44,161.23H470.05c-16.18,0-31.3,8.03-40.36,21.43l-40.54,59.94h313.19l-40.54-59.94
			C652.74,169.26,637.62,161.23,621.44,161.23z"/>
		<circle class="st6" cx="734.25" cy="359.12" r="24.99"/>
	</g>
</g>
<g id="LIHAT" class="st0">
	<g class="st3">
		<path class="st7" d="M0,540v540h540C241.77,1080,0,838.23,0,540z"/>
		<path class="st7" d="M540,0H0v540C0,241.77,241.77,0,540,0z"/>
		<path class="st7" d="M540,1080h540V540C1080,838.23,838.23,1080,540,1080z"/>
		<path class="st7" d="M540,0c298.23,0,540,241.77,540,540V0H540z"/>
	</g>
</g>
</svg>
